<svg width="161" height="200" viewBox="0 0 161 200" fill="none" xmlns="http://www.w3.org/2000/svg">
<path d="M13.2762 92.9347C11.555 93.2565 9.79991 93.3571 8.03002 93.2343C6.9069 93.1559 5.74991 93.0035 4.66596 92.6806C4.15574 92.5398 3.55978 92.3154 3.2041 91.9079C5.77637 89.7104 9.68242 91.1563 12.4018 92.5028C12.6898 92.6468 12.9777 92.7907 13.2762 92.9347Z" fill="#C2CAC2"/>
<path d="M160.463 72.8689C160.512 72.5608 160.444 72.2867 160.314 72.0771C160.289 71.8548 160.212 71.6335 160.04 71.425C156.774 67.5242 154.084 63.1493 152.088 58.479C151.079 56.1226 150.281 53.6785 149.619 51.2004C149.003 48.9012 148.439 46.5597 147.327 44.4373C143.307 36.7682 132.37 36.6443 127.269 43.2094C125.077 46.0156 124.025 49.313 123.439 52.73C122.228 53.2032 120.864 53.2339 119.608 52.8602C118.396 52.4971 117.272 51.645 116.58 50.6394C116.45 50.4509 116.278 50.3049 116.087 50.2128C114.295 43.6011 113.273 36.7353 111.618 30.111C109.245 20.6814 105.215 10.8422 97.1237 4.91753C88.7548 -1.2157 77.5321 -1.22945 68.2762 2.83431C58.5989 7.08438 51.6369 15.9 47.5107 25.4047C43.5178 34.5897 42.0337 44.4776 41.3224 54.4078C41.2599 54.5041 41.2091 54.611 41.1679 54.7275C41.1372 54.8122 41.117 54.8873 41.0863 54.9614C41.0758 54.9826 41.0144 55.1424 41.0144 55.1424C40.9329 55.334 40.8397 55.5256 40.7476 55.7183C40.573 56.0591 40.3877 56.401 40.1802 56.7218C40.0659 56.8933 39.9526 57.0743 39.8277 57.2458C39.8066 57.2775 39.8066 57.2669 39.797 57.2881C39.7864 57.2987 39.7864 57.2987 39.7557 57.3421C39.6933 57.4173 39.6308 57.503 39.5578 57.5887C39.308 57.8999 39.037 58.1889 38.7448 58.4684C38.6093 58.6081 38.4739 58.7372 38.3267 58.8664C38.2431 58.931 38.17 59.0061 38.0864 59.0707C38.0758 59.0813 38.0028 59.1353 37.9615 59.1787C37.6577 59.4158 37.3327 59.6328 37.0078 59.8381C36.6616 60.0446 36.3155 60.2404 35.9471 60.4151C35.873 60.4479 35.8 60.4807 35.7153 60.5135C35.7047 60.5241 35.5681 60.5791 35.5364 60.5897C35.3469 60.667 35.1468 60.7326 34.9468 60.7993C34.8833 60.8215 34.8208 60.8438 34.7573 60.8766C33.8194 59.0273 33.1112 56.9631 31.9341 55.3605C29.3195 51.8207 25.1012 51.4809 21.1052 52.5987C17.0457 53.7282 13.3672 56.238 10.8225 59.5788C7.78973 63.5515 6.85504 68.3605 5.9521 73.1483C4.78346 79.2953 3.04003 85.3026 0.617018 91.0759C0.412718 91.5554 0.556684 92.0085 0.846726 92.3218C0.879541 92.3959 0.933522 92.4583 0.987508 92.5208C1.99419 94.6972 4.89037 95.1206 7.0424 95.3641C10.0222 95.7007 13.0454 95.4233 15.9236 94.5871C16.0602 94.5426 16.1872 94.4876 16.2814 94.423L16.292 94.4124C16.3343 94.4008 16.3767 94.3796 16.418 94.3468C16.8435 94.5098 17.2701 94.6622 17.7051 94.7935H17.7157C17.738 94.8888 17.7824 94.9724 17.8364 95.0666C19.5714 97.8675 22.6274 99.0616 25.6273 100.023C25.9766 105.057 25.9565 110.096 25.5649 115.12C25.3881 115.344 25.3288 115.642 25.4505 116C26.2148 118.319 27.4533 120.427 29.1734 122.181C30.4956 123.528 32.076 124.489 33.6892 125.428C35.0643 130.362 36.1016 135.375 36.7167 140.458C36.6447 140.607 36.6055 140.799 36.6193 141.01C36.8151 144.236 39.055 146.765 41.8707 148.174C43.8756 149.171 46.0509 149.51 48.2442 149.657C48.2559 149.72 48.2358 149.784 48.258 149.858C49.2043 153.708 49.6966 157.639 49.7442 161.608C49.7495 161.957 49.9231 162.241 50.1803 162.438C51.0145 165.189 53.6566 166.981 56.3262 167.852C59.8258 168.997 64.1203 168.721 66.9647 171.379C67.5225 171.911 67.8803 172.467 68.1121 173.067C68.1153 173.278 68.1703 173.457 68.2677 173.604C68.5377 174.648 68.5006 175.782 68.5821 176.998C68.7017 178.68 69.2236 180.271 70.1339 181.686C71.0115 183.06 72.1293 184.187 73.3826 185.164C72.9952 189.743 72.6183 194.333 72.2309 198.912C72.1409 199.993 73.895 200.444 74.3247 199.432C75.2954 197.088 77.7025 195.92 79.3814 194.149C80.6326 192.828 81.526 190.984 81.3408 189.197C82.2427 187.172 83.4536 185.344 85.0192 183.764C86.6992 182.098 88.6522 181.001 90.6994 179.858C92.3475 178.934 94.0264 177.882 95.0712 176.258C96.4791 174.067 95.9561 171.661 95.6767 169.241C95.6047 168.628 95.5952 168.046 95.6407 167.495C95.6714 167.399 95.6905 167.292 95.6894 167.186L95.6883 167.091C96.3118 162.742 100.53 160.17 104.561 158.554C108.939 156.796 114.138 155.385 116.378 150.789C117.312 148.88 117.683 146.672 118.149 144.527C118.316 144.356 118.407 144.121 118.424 143.835C118.431 143.634 118.44 143.443 118.447 143.242C118.917 141.403 119.559 139.668 120.84 138.252C121.051 138.196 121.25 138.066 121.417 137.863C125.7 132.549 122.57 125.608 123.032 119.556C123.289 116.217 125.013 113.916 127.75 112.129C130.088 110.581 132.631 109.337 134.559 107.255C134.57 107.234 134.59 107.222 134.601 107.201C134.83 107.018 134.985 106.73 135.001 106.358C135.132 103.064 135.263 99.7697 135.405 96.4745C135.52 96.43 135.637 96.3866 135.752 96.3421C140.019 94.966 145.374 95.5228 148.385 91.5501C148.562 91.3151 148.663 91.0484 148.67 90.7837C148.942 90.5254 149.073 90.1105 148.993 89.6881C148.511 87.2069 148.03 84.7373 147.549 82.2561C147.896 82.1237 148.243 81.9808 148.581 81.8708C153.257 80.3009 159.606 78.6623 160.463 72.8689ZM131.42 100.548C131.593 99.413 132.257 98.4815 133.125 97.7701C133.039 99.8459 132.953 101.923 132.868 104.009C131.933 103.049 131.217 101.916 131.42 100.548ZM141.822 87.3625C141.811 87.3413 141.801 87.3307 141.789 87.3096V87.299C141.809 87.246 141.819 87.1931 141.819 87.1286C141.828 87.0333 141.826 86.938 141.836 86.8427C141.836 86.8322 141.836 86.8322 141.836 86.8216C141.957 86.4701 142.217 86.0753 142.319 85.9144C143.085 84.7172 144.216 83.864 145.465 83.1897C145.82 84.9628 146.164 86.7475 146.507 88.5205C145.455 88.2718 144.404 88.0326 143.352 87.7838C143.002 87.7044 142.017 87.6875 141.822 87.3625ZM51.7872 157.907C51.567 155.158 51.1351 152.434 50.5021 149.743C51.2113 149.764 51.911 149.774 52.6097 149.786C54.1351 149.827 56.0277 149.714 57.3954 150.551C58.9229 151.503 57.5012 152.71 56.5157 153.391C54.6717 154.667 53.085 156.163 51.7872 157.907ZM33.4309 105.627C33.4754 105.795 33.541 105.932 33.6278 106.047C33.0816 107.791 31.2577 109.025 29.8657 110.051C29.2168 110.537 28.5891 111.055 28.0038 111.593C28.152 107.991 28.1308 104.391 27.9074 100.785C30.3442 101.659 32.7873 102.968 33.4309 105.627ZM8.03002 93.2343C6.9069 93.1559 5.74991 93.0035 4.66596 92.6806C4.15574 92.5398 3.55978 92.3154 3.2041 91.9079C5.77637 89.7104 9.68242 91.1563 12.4018 92.5028C12.6898 92.6468 12.9777 92.7907 13.2762 92.9347C11.556 93.2565 9.79991 93.356 8.03002 93.2343ZM36.4372 127.136C38.0748 128.34 39.3461 129.846 39.5165 132.067C39.6488 133.854 39.1767 135.544 38.4908 137.175C37.9753 133.794 37.2798 130.449 36.4372 127.136ZM76.7795 193.543C76.1105 194.124 75.4203 194.696 74.7619 195.288C74.9937 192.383 75.2372 189.501 75.4912 186.607C76.5593 187.258 77.6697 187.845 78.778 188.41C78.778 188.421 78.7897 188.442 78.8003 188.453C78.9093 188.631 78.9855 188.82 79.0416 189C78.9823 189.287 79.0395 189.55 79.1697 189.781C79.1485 191.254 77.8455 192.638 76.7795 193.543Z" fill="#FFFDFE"/>
<path d="M85.5443 2.11662C92.0999 4.36603 96.7321 10.0684 99.4832 16.2302C102.866 23.8073 103.507 32.2863 104.651 40.4022C105.694 47.7908 107.169 55.3467 111.04 61.8377C112.906 64.9647 115.322 67.8567 118.385 69.8689C120.874 71.5033 124.709 72.89 126.36 69.4275C127.144 67.7815 127.239 65.7808 127.427 63.9951C127.666 61.7149 127.772 59.4243 127.896 57.1367C128.143 52.5299 128.503 47.9221 130.129 43.563C130.546 42.4452 128.682 41.719 128.173 42.8008C126.422 46.5153 124.93 50.3409 123.683 54.2522C121.576 54.2395 119.321 54.0394 117.612 52.7258C115.954 51.4523 115.204 49.3585 114.62 47.432C113.096 42.3901 111.776 37.2805 110.345 32.2111C108.999 27.4434 107.551 22.6683 105.289 18.2425C103.151 14.0581 100.294 10.2653 96.929 6.99017C96.6103 6.68001 96.243 6.64932 95.9202 6.75941C93.2357 3.77642 89.9372 1.39469 86.0513 0.0619747C84.7641 -0.380498 84.2624 1.67626 85.5443 2.11662Z" fill="#E5E5E5"/>
<path d="M155.911 68.6664C154.581 67.1072 153.805 65.0991 153.021 63.2308C151.174 58.823 149.481 54.3517 147.922 49.8338C147.727 49.2654 147.221 49.0748 146.753 49.132C146.203 45.8505 145.366 42.5574 143.012 40.0814C142.072 39.0927 140.599 40.6139 141.537 41.6004C144.216 44.4172 144.666 48.8441 145.129 52.5257C145.672 56.853 145.823 61.2301 145.572 65.584C145.47 67.3613 145.419 69.2264 144.867 70.9349C144.645 71.624 144.319 72.3682 143.758 72.8562C143.229 73.3166 142.587 73.3399 141.961 73.5792C141.864 70.2532 141.645 66.9304 141.281 63.6225C140.915 60.2933 140.484 57.0065 139.06 53.941C138.402 52.5225 136.584 53.237 136.149 54.3655C134.833 57.775 134.367 61.3868 133.88 64.9869C133.78 65.7226 133.681 66.4583 133.581 67.194C133.386 67.4332 133.254 67.7413 133.227 68.117C132.922 72.3078 132.134 76.4542 130.887 80.4671C130.26 82.4837 129.519 84.461 128.656 86.3876C127.981 87.8918 127.273 89.4796 126.145 90.7054C125.808 91.0716 125.38 91.3437 124.934 91.5956C125.172 86.7051 125.283 81.8009 124.767 76.9644C124.553 74.9553 121.644 74.9362 121.591 77.011C121.341 86.9645 120.741 96.9042 119.816 106.816C119.778 106.357 119.741 105.899 119.699 105.44C119.387 101.95 119.075 98.4593 118.763 94.9692C118.646 93.663 117.437 93.2142 116.544 93.5921C115.708 93.609 114.817 94.2875 114.832 95.2095C114.954 102.436 115.076 109.663 115.196 116.891C115.232 119.046 115.268 121.202 115.305 123.357C115.004 124.832 114.607 126.292 114.066 127.729C113.262 129.866 112.023 132.233 109.878 133.279C107.959 134.215 105.747 133.764 103.959 132.747C99.5531 130.24 98.4247 124.721 97.5133 120.147C96.1795 113.453 95.1072 106.703 94.869 99.8724C94.8351 98.8933 94.0868 98.3979 93.3257 98.3682C92.645 97.1403 90.3384 97.4229 90.3448 99.1706C90.3914 111.667 90.4379 124.163 90.4845 136.659C90.5184 145.777 90.8296 155.042 90.2432 164.196C89.5816 164.367 88.8702 164.37 88.2711 164.184C86.6198 163.673 85.4268 162.162 84.7684 160.622C83.8316 158.436 83.7977 155.956 83.7151 153.62C83.6273 151.161 83.5457 148.702 83.4611 146.243C83.1096 136.056 82.7582 125.867 82.4067 115.68C82.3803 114.902 81.9018 114.427 81.3249 114.251C80.55 113.383 78.5992 113.764 78.4605 115.337C77.0844 130.992 76.2227 146.688 75.8649 162.398C74.6709 161.187 74.4962 157.859 74.33 156.776C73.8568 153.679 73.4588 150.572 73.1254 147.457C72.467 141.3 72.0785 135.117 71.9409 128.926C71.9324 128.532 71.8054 128.216 71.6085 127.977C71.6085 127.974 71.6085 127.969 71.6085 127.966C71.5916 126.224 68.7134 125.775 68.4794 127.61L67.0006 139.153C65.4382 137.523 65.4266 134.339 65.2413 132.313C64.9164 128.754 64.6231 125.193 64.3606 121.629C63.8292 114.414 63.4291 107.19 63.1518 99.9613C63.0734 97.9194 59.8978 97.9607 59.9761 100.008C60.1275 103.945 60.3159 107.88 60.5414 111.814C59.9751 111.991 59.5273 112.477 59.5569 113.286C59.7771 119.236 59.5474 125.187 59.1282 131.123C58.9028 134.313 58.7228 137.541 58.4084 140.747C57.5669 140.466 56.5634 140.366 55.8224 140.045C52.0095 138.391 49.2679 134.753 47.8886 130.92C46.1473 126.083 46.0763 120.886 45.9049 115.808C45.7228 110.448 45.4063 105.095 45.0093 99.7475C44.7881 96.755 44.5552 93.7614 44.2821 90.7731C44.0291 87.9966 43.6681 85.2285 42.6403 82.6192C42.4265 82.0772 41.929 81.8877 41.4685 81.9322C41.0292 81.4103 40.1358 81.5045 39.7346 82.11C39.2561 82.8319 38.549 83.9476 37.6609 84.225C36.6119 84.5531 35.8666 83.7169 35.2982 82.96C34.0629 81.314 33.2446 79.3419 32.5005 77.4397C30.8608 73.2468 29.2909 69.0242 27.6883 64.8165C27.4946 64.3095 27.0521 64.1051 26.6202 64.1136C26.002 63.8447 25.1573 64.1898 25.0991 64.8885C24.6884 65.0875 24.3835 65.5035 24.5233 66.073C27.2183 77.0025 29.6964 87.9828 31.9754 99.0065C30.2892 97.7479 28.7257 96.3443 27.6714 94.4791C26.326 92.1006 25.7967 89.3568 25.2971 86.6999C24.1051 80.3623 22.9418 74.0185 21.7647 67.6778C21.6313 66.9601 20.9909 66.8034 20.4584 67.0056C20.0086 66.579 19.1765 66.4911 18.7457 67.1813C17.3368 69.4402 16.293 71.9289 15.7468 74.5393C15.225 77.0311 15.3054 80.0755 13.4233 82.0253C11.6196 83.8936 8.98272 84.0948 6.65392 84.8707C4.55164 85.5704 2.55627 87.191 2.78069 89.6214C2.82832 90.138 3.1099 90.4619 3.58518 90.6334C6.44856 91.6666 9.31192 92.7018 12.1764 93.7328C14.6586 94.6263 17.1325 95.4371 19.7704 95.6245C23.5663 98.6985 28.0959 100.46 32.6476 102.112C32.6582 102.145 32.6804 102.163 32.6931 102.193C32.7503 102.895 32.8117 103.596 32.8646 104.299C32.3459 106.182 31.6325 107.996 30.6776 109.714C30.069 110.809 29.383 111.864 28.6092 112.849C28.134 113.455 27.5348 114.026 27.2903 114.761C26.7578 115.017 26.4064 115.678 26.7938 116.243C29.5027 120.193 32.8752 123.551 36.8268 126.257C36.9718 126.356 37.1168 126.397 37.2597 126.411C37.3105 126.566 37.3677 126.715 37.4121 126.874C37.5042 127.203 37.7329 127.406 38.0017 127.516C39.363 133.52 36.3917 140.539 40.8471 145.734C44.913 150.476 51.5681 148.306 56.8047 150.195C55.9356 153.103 54.549 155.77 52.1386 157.827C51.7586 158.152 51.4665 158.497 51.2272 158.852C50.6884 159.117 50.2915 159.673 50.3211 160.296C50.464 163.306 53.0331 165.457 55.6488 166.516C57.7701 167.375 60.0566 167.686 62.3018 167.388C65.2424 169.087 67.64 171.665 68.9558 174.877C69.2151 175.511 69.7751 175.862 70.3499 175.945C70.6727 177.941 71.2655 179.889 72.3018 181.747C73.5583 184 75.4553 185.997 77.8391 187.053C78.8934 187.52 80.2007 187.856 81.2497 187.168C82.2935 186.483 82.3633 185.43 82.2405 184.36L86.281 181.174C86.8685 180.711 87.4698 180.254 88.0689 179.795C89.2513 179.312 90.2972 178.696 91.0678 177.701C92.4238 177.038 93.476 175.888 94.0867 174.391C95.14 171.806 94.5218 169.006 93.8581 166.406C93.8041 166.196 93.7131 166.018 93.5956 165.869C93.9364 165.566 94.2434 165.219 94.5155 164.835C94.6065 164.768 94.6954 164.69 94.779 164.594C97.9991 160.861 102.064 158.044 106.723 156.414C109.088 155.586 111.424 154.759 113.182 152.882C114.771 151.187 115.768 149.049 116.492 146.865C117.278 144.493 117.75 142.04 118.043 139.558C118.304 139.265 118.582 138.983 118.823 138.678C120.702 136.302 121.628 133.617 121.719 130.591C121.815 127.353 121.067 124.123 121.537 120.892C121.852 118.73 122.502 116.643 123.055 114.533C123.068 114.525 123.082 114.523 123.094 114.514L131.676 108.247C132.479 107.66 132.795 106.498 131.977 105.738C129.403 103.347 130.177 100.099 130.686 96.9911C130.723 96.7645 130.766 96.5401 130.805 96.3136C131.035 96.3633 131.285 96.3686 131.55 96.2977C136.223 95.0412 140.84 93.5899 145.391 91.945C146.52 91.5374 146.959 90.1772 146.072 89.2753C145.145 88.3332 143.902 88.1691 142.897 87.3996C142.138 86.8173 141.948 85.8223 141.892 84.8844C142.216 84.8537 142.54 84.6886 142.752 84.3795C144.897 81.2695 149.002 80.5084 152.255 79.0783C154.841 77.9414 158.851 75.5322 158.762 72.2104C158.716 70.4607 156.915 69.8425 155.911 68.6664Z" fill="#E5E5E5"/>
<path d="M79.1686 189.781C79.1475 191.254 77.8455 192.638 76.7784 193.543C76.1094 194.124 75.4193 194.696 74.7609 195.288C74.9927 192.383 75.2361 189.501 75.4902 186.607C76.5583 187.258 77.6687 187.845 78.777 188.41C78.777 188.421 78.7886 188.442 78.7992 188.453C78.9082 188.631 78.9845 188.82 79.0406 189C78.9813 189.287 79.0384 189.55 79.1686 189.781Z" fill="#C2CAC2"/>
<path d="M33.6268 106.047C33.0805 107.791 31.2567 109.025 29.8647 110.051C29.2158 110.537 28.5881 111.055 28.0027 111.593C28.1509 107.991 28.1297 104.391 27.9064 100.785C30.3431 101.659 32.7873 102.968 33.4299 105.626C33.4754 105.795 33.541 105.932 33.6268 106.047Z" fill="#C2CAC2"/>
<path d="M146.508 88.5206C145.456 88.2718 144.405 88.0326 143.353 87.7838C143.002 87.7044 142.017 87.6875 141.822 87.3614C141.811 87.3403 141.801 87.3297 141.789 87.3085V87.2979C141.809 87.245 141.819 87.1921 141.819 87.1275C141.828 87.0322 141.826 86.937 141.836 86.8417C141.836 86.8311 141.836 86.8311 141.836 86.8205C141.957 86.4691 142.217 86.0743 142.319 85.9134C143.085 84.7161 144.216 83.8629 145.465 83.1886C145.82 84.9638 146.164 86.7475 146.508 88.5206Z" fill="#C2CAC2"/>
<path d="M133.125 97.7701C133.039 99.8459 132.953 101.923 132.868 104.009C131.933 103.049 131.217 101.916 131.42 100.548C131.593 99.413 132.257 98.4815 133.125 97.7701Z" fill="#C2CAC2"/>
<path d="M39.5165 132.067C39.6488 133.854 39.1767 135.544 38.4908 137.175C37.9753 133.795 37.2798 130.449 36.4372 127.137C38.0748 128.34 39.3461 129.846 39.5165 132.067Z" fill="#C2CAC2"/>
<path d="M56.5157 153.391C54.6717 154.668 53.0839 156.163 51.7872 157.907C51.567 155.158 51.1351 152.434 50.5021 149.743C51.2113 149.764 51.911 149.774 52.6097 149.786C54.1351 149.827 56.0277 149.714 57.3954 150.551C58.9229 151.503 57.5012 152.71 56.5157 153.391Z" fill="#C2CAC2"/>
<path d="M119.321 64.2025C113.119 53.5588 112.269 41.1537 109.165 29.4907C106.778 20.5269 102.698 10.964 94.5335 5.82365C85.8671 0.382717 74.492 1.46138 65.9177 6.5424C57.2175 11.6996 51.3479 20.7216 48.0357 30.1078C44.0831 41.2924 43.4448 53.2752 42.9833 65.0229C42.9303 66.453 40.6968 66.4858 40.7603 65.0557C40.8376 63.1281 40.9148 61.1994 41.0239 59.2612C41.0948 57.6406 41.1986 56.0295 41.3224 54.4078C42.0337 44.4776 43.5178 34.5886 47.5107 25.4047C51.6369 15.9 58.6 7.08438 68.2762 2.83431C77.5321 -1.23051 88.7548 -1.2157 97.1237 4.91753C105.214 10.8433 109.245 20.6825 111.618 30.111C113.273 36.7353 114.295 43.6011 116.087 50.2128C116.456 51.5624 116.857 52.9015 117.3 54.2279C118.319 57.2722 119.59 60.2393 121.242 63.0731C121.959 64.3116 120.05 65.441 119.321 64.2025Z" fill="#494949"/>
<path d="M125.557 53.4498C125.557 53.4498 125.547 53.4604 125.557 53.471C125.559 53.6086 125.54 53.7568 125.479 53.8849C125.408 54.1294 125.252 54.3326 125.022 54.4523C124.401 54.7582 123.759 54.9794 123.094 55.1266C121.775 55.4314 120.399 55.4102 119.08 55.0165C118.452 54.8249 117.856 54.5687 117.301 54.2279C116.264 53.6287 115.364 52.785 114.66 51.7688C114.313 51.2766 114.568 50.5314 115.05 50.2488C115.386 50.0424 115.767 50.0582 116.088 50.2117C116.279 50.3038 116.451 50.4499 116.581 50.6383C117.273 51.6439 118.397 52.4961 119.609 52.8591C120.864 53.2328 122.229 53.2021 123.44 52.7289C123.598 52.6739 123.745 52.6083 123.892 52.5321C124.428 52.2706 125.086 52.3764 125.412 52.9227C125.51 53.0698 125.555 53.2699 125.557 53.4498Z" fill="#494949"/>
<path d="M160.314 72.0771C160.391 73.0181 159.239 73.9031 158.496 73.0139C158.41 72.9091 158.313 72.7948 158.226 72.69C155.09 68.9036 152.456 64.7509 150.452 60.2489C148.656 56.2105 147.757 51.9784 146.351 47.8067C145.035 43.9409 142.358 41.1326 138.169 40.6859C134.214 40.2677 130.589 42.1107 128.414 45.4038C126.799 47.8416 126.003 50.6055 125.558 53.4498C125.558 53.4498 125.548 53.4604 125.558 53.471C125.529 53.6086 125.51 53.7473 125.48 53.8849C125.221 55.6675 125.078 57.4691 124.935 59.239C124.829 60.6596 122.606 60.703 122.712 59.2718C122.819 57.9042 122.936 56.5164 123.095 55.1266C123.189 54.321 123.305 53.525 123.441 52.7289C124.026 49.3109 125.078 46.0146 127.271 43.2084C132.372 36.6433 143.31 36.7682 147.33 44.4363C148.441 46.5587 149.004 48.9002 149.621 51.1993C150.283 53.6774 151.081 56.1216 152.09 58.4779C154.085 63.1493 156.776 67.5243 160.042 71.424C160.211 71.6336 160.288 71.8548 160.314 72.0771Z" fill="#494949"/>
<path d="M160.463 72.8689C160.512 72.5608 160.444 72.2867 160.314 72.0771C159.815 71.3117 158.47 71.226 158.306 72.329C158.287 72.456 158.266 72.5735 158.226 72.69C157.663 75.3872 155.274 77.1062 152.822 78.1055C149.971 79.2805 146.887 79.8235 144.179 81.3563C143.475 81.7585 142.701 82.2889 141.98 82.9134C140.757 83.99 139.708 85.3608 139.603 86.8766C139.596 87.0672 139.598 87.2577 139.612 87.4588C139.612 87.4694 139.612 87.48 139.612 87.48L139.613 87.5223C139.774 89.1292 141.115 89.5537 142.474 89.8723C143.706 90.1507 144.938 90.4397 146.16 90.7181C146.66 90.8377 147.158 90.9467 147.658 91.0664C148.073 91.1659 148.43 91.0335 148.67 90.7869C148.942 90.5286 149.073 90.1137 148.993 89.6913C148.511 87.2101 148.03 84.7405 147.549 82.2592C147.896 82.1269 148.243 81.984 148.581 81.8739C153.257 80.3009 159.606 78.6623 160.463 72.8689ZM143.353 87.7838C143.002 87.7044 142.017 87.6875 141.822 87.3614C141.811 87.3403 141.801 87.3297 141.789 87.3085V87.2979C141.745 87.1825 141.774 87.0227 141.836 86.8417C141.836 86.8311 141.836 86.8311 141.836 86.8205C141.957 86.4691 142.217 86.0743 142.319 85.9134C143.085 84.7161 144.216 83.8629 145.465 83.1886C145.82 84.9617 146.164 86.7464 146.507 88.5195C145.456 88.2718 144.405 88.0336 143.353 87.7838Z" fill="#494949"/>
<path d="M140.325 58.0714C140.283 57.4914 139.82 56.9399 139.197 56.9758C138.624 57.0087 138.057 57.4839 138.101 58.1042C138.237 59.9779 138.372 61.8526 138.508 63.7262C138.549 64.3063 139.013 64.8578 139.636 64.8218C140.209 64.789 140.776 64.3137 140.732 63.6934C140.596 61.8187 140.461 59.9451 140.325 58.0714Z" fill="#494949"/>
<path d="M141.979 82.9134C141.955 84.2155 141.911 85.5185 141.835 86.8216C141.835 86.8322 141.835 86.8322 141.835 86.8428C141.825 86.938 141.827 87.0333 141.818 87.1286C141.819 87.1921 141.809 87.245 141.788 87.299V87.3096C141.562 88.4454 139.837 88.5237 139.61 87.4789C139.61 87.4789 139.61 87.4684 139.61 87.4578C139.587 87.3731 139.575 87.2683 139.584 87.1614C139.594 87.0661 139.592 86.9708 139.601 86.8756C139.973 80.4544 139.75 74.0322 138.958 67.6598C138.778 66.2328 141.001 66.2212 141.18 67.6269C141.817 72.6995 142.083 77.8091 141.979 82.9134Z" fill="#494949"/>
<path d="M148.361 89.9761C147.974 89.6003 147.158 89.5283 146.794 89.9993C146.597 90.2566 146.389 90.5032 146.159 90.7181C142.695 94.1679 136.576 92.7336 132.582 95.3969H132.571C130.799 96.5772 129.314 98.4942 129.177 100.677V100.688C129.157 100.857 129.16 101.016 129.163 101.185C129.237 103.365 130.649 105.038 132.225 106.423C132.515 106.683 132.815 106.933 133.114 107.172C133.585 107.557 134.199 107.527 134.597 107.203C134.827 107.02 134.982 106.732 134.997 106.36C135.129 103.066 135.26 99.7718 135.402 96.4766C135.517 96.4321 135.634 96.3887 135.749 96.3443C140.016 94.9682 145.371 95.525 148.382 91.5522C148.559 91.3172 148.66 91.0505 148.667 90.7858C148.696 90.5 148.597 90.2153 148.361 89.9761ZM131.42 100.548C131.593 99.413 132.257 98.4815 133.125 97.7701C133.039 99.8459 132.953 101.923 132.868 104.009C131.933 103.049 131.217 101.916 131.42 100.548Z" fill="#494949"/>
<path d="M134.647 69.9124C133.492 80.0903 131.662 90.1772 129.166 100.112C128.818 101.499 130.976 102.036 131.325 100.644C133.821 90.7096 135.652 80.6227 136.807 70.4437C136.966 69.0433 134.809 68.4907 134.647 69.9124Z" fill="#494949"/>
<path d="M134.598 107.203C134.588 107.224 134.567 107.235 134.557 107.257C132.63 109.339 130.086 110.584 127.747 112.131C125.011 113.918 123.287 116.221 123.03 119.558C122.568 125.61 125.698 132.551 121.415 137.865C121.249 138.068 121.05 138.198 120.838 138.254C119.922 138.533 118.807 137.585 119.534 136.686C119.67 136.514 119.794 136.343 119.918 136.172C123.526 130.952 120.011 123.785 121.025 117.905C121.044 117.746 121.073 117.597 121.103 117.438C121.469 115.739 122.242 114.298 123.304 113.065C124.084 112.122 125.035 111.304 126.094 110.579C128.138 109.172 130.387 108.08 132.226 106.423C132.509 106.175 132.79 105.906 133.051 105.616C134.009 104.574 135.472 106.152 134.598 107.203Z" fill="#494949"/>
<path d="M122.095 85.7916C121.702 96.3231 121.31 106.855 120.918 117.386C120.865 118.819 123.088 118.781 123.142 117.353C123.534 106.822 123.926 96.2903 124.319 85.7588C124.372 84.3255 122.148 84.3636 122.095 85.7916Z" fill="#494949"/>
<path d="M123.411 75.1702C122.799 75.2051 122.318 75.6772 122.315 76.2986L122.297 79.4774C122.294 80.0596 122.834 80.6069 123.425 80.573C124.037 80.5381 124.518 80.0659 124.521 79.4446L124.539 76.2657C124.542 75.6825 124.001 75.1363 123.411 75.1702Z" fill="#494949"/>
<path d="M43.3262 55.2568C42.8086 56.7356 42.0232 58.0926 41.0249 59.2612C39.6827 60.8374 37.9435 62.0696 35.9534 62.7978C35.8169 62.8529 35.6793 62.8974 35.5427 62.9418C34.9531 63.1408 34.354 62.7269 34.1761 62.168C34.01 61.662 34.3095 61.1285 34.7605 60.8787C34.824 60.8459 34.8864 60.8237 34.9499 60.8014C35.15 60.7347 35.3501 60.6681 35.5395 60.5918C35.5713 60.5812 35.7079 60.5262 35.7184 60.5156C35.8031 60.4828 35.8762 60.45 35.9503 60.4172C36.3186 60.2425 36.6648 60.0467 37.0109 59.8403C37.3359 59.6338 37.6609 59.4179 37.9647 59.1808C38.006 59.1385 38.0801 59.0834 38.0896 59.0728C38.1732 59.0083 38.2463 58.9331 38.3299 58.8685C38.476 58.7394 38.6125 58.6102 38.748 58.4705C39.0402 58.1911 39.3112 57.901 39.561 57.5908C39.634 57.5051 39.6965 57.4194 39.7589 57.3442C39.7896 57.3019 39.7896 57.3019 39.8002 57.2902C39.8108 57.2691 39.8108 57.2796 39.8309 57.2479C39.9558 57.0764 40.0691 56.8954 40.1834 56.7239C40.3909 56.4032 40.5761 56.0612 40.7508 55.7204C40.8429 55.5288 40.936 55.3362 41.0175 55.1446C41.0175 55.1446 41.0789 54.9847 41.0895 54.9635C41.1202 54.8894 41.1403 54.8143 41.171 54.7296C41.2112 54.6121 41.2631 54.5062 41.3256 54.4099C41.5849 54.0246 42.0052 53.8182 42.5143 53.9156C43.0648 54.0225 43.5189 54.7148 43.3262 55.2568Z" fill="#494949"/>
<path d="M36.7262 66.4604C33.3177 64.319 32.529 60.3717 30.4913 57.1727C27.9985 53.2709 23.2329 53.8711 19.4676 55.5256C15.7754 57.1579 12.6739 60.0509 10.8754 63.6669C8.68526 68.0609 8.33806 73.179 7.23187 77.8959C6.34587 81.6781 5.19311 85.3999 3.80747 89.0308C3.52272 89.8077 3.21574 90.5741 2.89924 91.3416C2.79762 91.6073 2.68541 91.8846 2.57215 92.1514C2.24506 92.9294 1.4395 92.8669 0.946217 92.4298C0.91446 92.398 0.871064 92.3673 0.849893 92.325C0.559851 92.0116 0.414827 91.5586 0.620186 91.079C3.04426 85.3057 4.78663 79.2985 5.95527 73.1515C6.85821 68.3637 7.7929 63.5537 10.8256 59.582C13.3704 56.2412 17.0488 53.7303 21.1084 52.6019C25.1044 51.4841 29.3227 51.8239 31.9373 55.3637C33.1144 56.9663 33.8226 59.0305 34.7605 60.8798C35.1204 61.5625 35.5004 62.2135 35.9534 62.8C36.4605 63.47 37.0522 64.0543 37.789 64.5191C39.0063 65.2727 37.934 67.2258 36.7262 66.4604Z" fill="#494949"/>
<path d="M23.6902 94.8549C22.7534 95.1862 21.8229 95.3164 20.902 95.309C19.8222 95.3143 18.7605 95.1185 17.7189 94.7946H17.7083C17.2722 94.6633 16.8467 94.5109 16.4211 94.3479C16.4105 94.3479 16.4 94.3373 16.3894 94.3373C15.8675 94.133 15.3562 93.9181 14.8439 93.6725C14.322 93.4365 13.7991 93.1898 13.2878 92.9336C13.2878 92.9336 13.2878 92.9336 13.2772 92.9336C12.9787 92.7897 12.6908 92.6457 12.4029 92.5018C9.68348 91.1553 5.77638 89.7093 3.20517 91.9069C2.9744 92.09 2.75634 92.3049 2.5478 92.5621C2.05876 93.1623 1.37917 92.9813 0.990681 92.5219C0.936695 92.4594 0.882714 92.397 0.849899 92.3229C0.632896 91.945 0.593725 91.4368 0.94728 91.0081C1.73802 90.0438 2.72353 89.4044 3.80854 89.0287C5.98809 88.2559 8.57623 88.5354 10.7367 89.3388C14.3347 90.6832 18.0947 93.6662 22.0854 92.9294C20.5399 85.7853 19.5544 78.5268 19.1818 71.2271C19.1077 69.7885 21.3307 69.7663 21.4048 71.1943C21.7806 78.6941 22.801 86.1537 24.465 93.4873C24.6111 94.1012 24.2798 94.6453 23.6902 94.8549Z" fill="#494949"/>
<path d="M16.3883 94.3383C16.3566 94.3606 16.3259 94.3923 16.2941 94.4135L16.2835 94.4241C16.1893 94.4886 16.0633 94.5437 15.9257 94.5881C13.0475 95.4244 10.0243 95.7017 7.04451 95.3651C4.89142 95.1217 1.99524 94.6982 0.989617 92.5219C0.968446 92.4901 0.956802 92.4583 0.946216 92.4277C0.880586 92.3017 0.836131 92.1641 0.791672 92.0169C0.390483 90.6779 2.42501 90.0766 2.89924 91.3405C2.90982 91.3617 2.92146 91.3935 2.93205 91.4241C2.98815 91.603 3.08554 91.7714 3.2041 91.9069C3.55977 92.3144 4.15573 92.5388 4.66595 92.6796C5.75096 93.0024 6.9069 93.1549 8.03002 93.2332C9.79991 93.3549 11.556 93.2554 13.2762 92.9336C13.2868 92.9336 13.2868 92.9336 13.2868 92.9336C13.9409 92.8077 14.5845 92.6605 15.2281 92.4816C15.2599 92.4711 15.3022 92.4594 15.334 92.4478C16.5249 92.0921 17.1304 93.6503 16.3883 94.3383Z" fill="#494949"/>
<path d="M16.4201 94.3489C16.3788 94.3817 16.3364 94.4029 16.2941 94.4145L16.2835 94.4251C16.1681 94.4696 16.0411 94.4918 15.8929 94.4939C15.2895 94.5024 14.9349 94.116 14.8428 93.6736C14.7306 93.2417 14.8608 92.742 15.2271 92.4827C15.3838 92.3536 15.605 92.2763 15.859 92.272C17.088 92.253 17.2817 93.881 16.4201 94.3489Z" fill="#494949"/>
<path d="M34.5646 106.404C34.2058 106.451 33.8543 106.34 33.6278 106.047C33.541 105.932 33.4754 105.795 33.4309 105.627C32.7884 102.969 30.3442 101.66 27.9074 100.786C27.3009 100.562 26.7049 100.37 26.1312 100.188C25.9608 100.137 25.8009 100.087 25.6315 100.026C22.6316 99.0647 19.5756 97.8707 17.8406 95.0698C17.7866 94.9756 17.7422 94.8909 17.72 94.7967H17.7094C17.3654 93.7011 19.0569 92.8288 19.7608 93.9509C20.0858 94.4749 20.4743 94.9248 20.903 95.3101C22.9312 97.1541 25.9777 97.7331 28.4896 98.6286C30.1177 99.2076 31.7711 100.009 33.089 101.133C34.0534 101.945 34.8303 102.939 35.2929 104.15C35.403 104.435 35.4919 104.729 35.5702 105.035C35.7618 105.803 35.1775 106.341 34.5646 106.404Z" fill="#494949"/>
<path d="M27.5316 67.8641C27.2628 66.9188 26.9939 65.9735 26.7261 65.0272C26.5673 64.4672 25.9301 64.0671 25.3563 64.2534C24.7858 64.4386 24.4132 65.025 24.5825 65.6231C24.8514 66.5684 25.1192 67.5137 25.3881 68.46C25.5469 69.02 26.1841 69.4201 26.7578 69.2338C27.3284 69.0475 27.701 68.4621 27.5316 67.8641Z" fill="#494949"/>
<path d="M28.7363 72.5016C28.3615 71.117 26.2201 71.715 26.5938 73.0975C29.4952 83.8386 31.9458 94.6961 33.9369 105.644C34.1931 107.055 36.3345 106.445 36.0794 105.048C34.0883 94.1001 31.6388 83.2426 28.7363 72.5016Z" fill="#494949"/>
<path d="M36.017 105.165C35.999 105.409 35.9704 105.632 35.9323 105.854V105.865C35.5501 107.987 34.0819 109.597 32.3861 110.935C30.6903 112.263 28.4113 113.493 27.7349 115.683C27.7349 115.693 27.7243 115.715 27.7148 115.725C27.3284 116.831 25.4325 116.733 25.5405 115.439C25.549 115.334 25.5585 115.228 25.568 115.122C25.9597 110.098 25.9809 105.058 25.6305 100.025C25.6157 99.7602 25.5913 99.4966 25.5765 99.232C25.4707 97.804 27.6936 97.7818 27.7995 99.1992C27.8386 99.7274 27.8788 100.257 27.9074 100.786C28.1297 104.392 28.152 107.991 28.0038 111.594C28.5891 111.056 29.2158 110.538 29.8657 110.052C31.2588 109.026 33.0827 107.792 33.6278 106.048C33.7189 105.772 33.7675 105.495 33.7845 105.199C33.794 105.125 33.8035 105.051 33.8131 104.987V104.977C33.993 104.286 34.7202 104.01 35.2929 104.15C35.7185 104.259 36.0508 104.592 36.017 105.165Z" fill="#494949"/>
<path d="M39.5779 126.91C39.363 126.67 39.1259 126.429 38.8793 126.211C36.9919 124.545 34.6271 123.585 32.5735 122.154C30.3167 120.578 28.6315 118.317 27.7148 115.725C27.6714 115.62 27.6269 115.515 27.593 115.399C27.2607 114.408 26.002 114.47 25.567 115.122C25.3902 115.346 25.3309 115.644 25.4527 116.003C26.2169 118.321 27.4554 120.429 29.1756 122.183C30.4977 123.53 32.0781 124.491 33.6913 125.43C35.0664 130.364 36.1038 135.377 36.7188 140.46C36.7421 140.619 36.7548 140.766 36.7781 140.925C36.8987 141.95 38.3045 142.512 38.8708 141.445C38.8814 141.424 38.892 141.413 38.9015 141.392C40.2713 138.789 41.6283 136.079 41.7532 133.081L41.7511 132.954C41.7617 132.954 41.7617 132.944 41.7511 132.933C41.8146 130.677 41.063 128.561 39.5779 126.91ZM38.4908 137.174C37.9753 133.794 37.2798 130.447 36.4372 127.136C38.0748 128.34 39.3461 129.846 39.5165 132.067C39.6488 133.854 39.1767 135.544 38.4908 137.174Z" fill="#494949"/>
<path d="M60.2238 150.722C59.9772 149.825 59.3537 149.168 58.5852 148.693C58.1575 148.424 57.6886 148.218 57.2101 148.067C55.4974 147.51 53.5613 147.581 51.7819 147.555C49.7802 147.51 47.7478 147.529 45.763 147.146C42.7895 146.554 39.3535 144.657 38.9026 141.393C38.8687 141.255 38.856 141.119 38.8433 140.981C38.7618 139.765 37.1401 139.599 36.7188 140.462C36.6468 140.612 36.6076 140.803 36.6214 141.014C36.8172 144.24 39.0571 146.769 41.8728 148.178C43.8777 149.175 46.053 149.514 48.2464 149.661C48.258 149.725 48.2379 149.788 48.2601 149.862C49.2065 153.712 49.6987 157.644 49.7463 161.612C49.7516 161.962 49.9252 162.245 50.1824 162.442C50.6969 162.837 51.5226 162.835 51.8401 162.132C51.9523 161.876 52.0762 161.621 52.2096 161.365C52.8881 159.999 53.7593 158.737 54.822 157.62C56.032 156.364 57.533 155.548 58.8403 154.407C59.4574 153.868 59.9549 153.194 60.1772 152.449C60.1878 152.449 60.1878 152.439 60.1878 152.439C60.3582 151.895 60.3921 151.322 60.2238 150.722ZM56.5157 153.391C54.6717 154.668 53.0839 156.163 51.7872 157.907C51.567 155.158 51.1351 152.434 50.5021 149.743C51.2113 149.764 51.911 149.774 52.6097 149.786C54.1351 149.827 56.0277 149.714 57.3954 150.551C58.9229 151.503 57.5012 152.71 56.5157 153.391Z" fill="#494949"/>
<path d="M80.4918 188.312C80.4918 188.323 80.4918 188.323 80.4813 188.323C80.1796 188.665 79.7053 188.853 79.1835 188.617C79.1623 188.617 79.1517 188.606 79.1305 188.597C79.013 188.535 78.8956 188.473 78.7781 188.411C77.6687 187.845 76.5593 187.259 75.4913 186.608C74.7545 186.163 74.0485 185.687 73.3848 185.167C72.1314 184.19 71.0136 183.064 70.1361 181.69C69.2257 180.274 68.7049 178.683 68.5842 177.001C68.5027 175.785 68.5387 174.651 68.2699 173.608C68.2349 173.429 68.1799 173.238 68.1142 173.07C67.8835 172.47 67.5257 171.914 66.9668 171.383C64.1225 168.725 59.8279 169 56.3284 167.855C53.6587 166.984 51.0166 165.192 50.1824 162.441C50.0829 162.146 50.0141 161.829 49.9676 161.502C49.7675 160.108 51.9068 159.494 52.1079 160.909C52.1312 161.068 52.1545 161.215 52.2096 161.363C52.9908 164.792 56.8703 165.857 59.9602 166.436C62.8374 166.997 65.9051 167.544 68.1778 169.491C68.3916 169.668 68.5959 169.855 68.7896 170.065C69.4882 170.785 70.009 171.603 70.3287 172.519C70.4939 172.941 70.5955 173.373 70.6653 173.827C70.9713 175.897 70.6188 177.871 71.6117 179.815C73.0831 182.673 75.8829 184.4 78.6775 185.851C79.1687 186.119 79.6588 186.365 80.1499 186.613C80.1711 186.624 80.1817 186.633 80.2029 186.644C80.5553 186.829 80.729 187.113 80.7649 187.408C80.8115 187.724 80.6898 188.055 80.4918 188.312Z" fill="#494949"/>
<path d="M41.2726 81.9078C40.6714 81.9427 40.1686 82.4148 40.1771 83.0362L40.2384 87.1698C40.2469 87.752 40.7667 88.2993 41.3669 88.2654C41.9681 88.2305 42.472 87.7584 42.4625 87.137L42.4011 83.0034C42.3926 82.4201 41.8728 81.8729 41.2726 81.9078Z" fill="#494949"/>
<path d="M39.8203 91.9672C39.7282 105.584 39.6351 119.201 39.543 132.819C39.5335 134.253 41.7564 134.218 41.767 132.786C41.8591 119.169 41.9512 105.552 42.0443 91.9344C42.0528 90.5011 39.8298 90.536 39.8203 91.9672Z" fill="#494949"/>
<path d="M59.9031 102.059L58.4984 151.546C58.4582 152.98 60.6811 152.943 60.7224 151.514L62.1271 102.027C62.1673 100.593 59.9433 100.63 59.9031 102.059Z" fill="#494949"/>
<path d="M71.1353 130.493C71.1385 129.912 70.768 129.314 70.1318 129.282C69.574 129.253 68.924 129.664 68.9208 130.284C68.9124 131.88 68.9029 133.475 68.8944 135.071C68.8912 135.652 69.2606 136.25 69.8968 136.282C70.4547 136.311 71.1046 135.9 71.1078 135.28C71.1173 133.683 71.1258 132.088 71.1353 130.493Z" fill="#494949"/>
<path d="M70.9818 140.039C70.7606 150.862 70.5394 161.695 70.3287 172.517C70.3213 172.74 70.3245 172.962 70.3171 173.184C70.3033 174.38 68.779 174.435 68.2698 173.607C68.1725 173.459 68.1163 173.281 68.1142 173.069C68.1036 173.037 68.1026 173.016 68.1026 172.984C68.128 171.82 68.1534 170.654 68.1777 169.49C68.3704 159.599 68.5736 149.708 68.7663 139.828C68.7864 138.389 71.003 138.61 70.9818 140.039Z" fill="#494949"/>
<path d="M80.1795 128.517C80.2483 127.084 78.0243 127.125 77.9555 128.55C77.0103 148.157 77.2865 167.81 78.7854 187.383C78.8945 188.805 81.1185 188.78 81.0095 187.35C79.5116 167.777 79.2343 148.124 80.1795 128.517Z" fill="#494949"/>
<path d="M80.0059 115.564C79.3782 115.6 78.9337 116.071 78.9104 116.693C78.8617 117.987 78.813 119.282 78.7632 120.577C78.741 121.16 79.3137 121.705 79.8916 121.672C80.5194 121.636 80.9639 121.166 80.9872 120.544C81.0359 119.249 81.0846 117.955 81.1344 116.66C81.1555 116.077 80.5839 115.53 80.0059 115.564Z" fill="#494949"/>
<path d="M79.3814 194.151C77.7036 195.922 75.2965 197.09 74.3247 199.434C73.895 200.446 72.142 199.995 72.2309 198.914C72.6183 194.335 72.9952 189.745 73.3826 185.166C73.3911 185.028 73.4101 184.891 73.4186 184.753C73.4631 184.149 73.8579 183.635 74.5132 183.626C75.0636 183.617 75.685 184.128 75.6405 184.72C75.5865 185.346 75.5325 185.982 75.4881 186.607C75.234 189.501 74.9916 192.384 74.7587 195.288C75.4171 194.696 76.1073 194.124 76.7763 193.543C77.8433 192.638 79.1454 191.254 79.1665 189.781C79.1729 189.517 79.1379 189.263 79.0384 189C78.9834 188.821 78.9061 188.632 78.7971 188.453C78.7865 188.442 78.7759 188.421 78.7749 188.41C78.5579 188.032 78.5949 187.672 78.7812 187.394V187.384C79.0289 186.978 79.5444 186.726 80.0229 186.836C80.2886 186.885 80.5448 187.041 80.7184 187.334C80.7289 187.355 80.7512 187.387 80.7618 187.407C80.838 187.533 80.9025 187.648 80.9576 187.774V187.785C81.1661 188.247 81.2889 188.722 81.3387 189.198C81.526 190.985 80.6326 192.83 79.3814 194.151Z" fill="#494949"/>
<path d="M121.089 137.986C121.006 138.072 120.922 138.158 120.839 138.254C119.559 139.671 118.917 141.406 118.446 143.244C118.336 143.669 118.236 144.094 118.148 144.529C117.682 146.675 117.312 148.882 116.377 150.791C114.137 155.387 108.938 156.797 104.56 158.556C100.529 160.173 96.3118 162.744 95.6873 167.093C95.6682 167.22 95.6492 167.359 95.6407 167.497C95.5962 168.048 95.6047 168.63 95.6767 169.243C95.9561 171.663 96.4791 174.069 95.0712 176.26C94.0254 177.885 92.3476 178.936 90.6994 179.861C88.6522 181.003 86.6992 182.1 85.0192 183.767C83.4547 185.346 82.2427 187.174 81.3408 189.199C81.2487 189.412 81.1566 189.626 81.0645 189.849C80.676 190.807 79.5497 190.517 79.1686 189.781C79.0384 189.55 78.9813 189.286 79.0406 189C79.0607 188.936 79.0808 188.861 79.1115 188.787C79.1316 188.734 79.1623 188.67 79.1835 188.617C79.2343 188.499 79.2756 188.383 79.337 188.265C79.5413 187.775 79.7678 187.306 80.025 186.836C80.0663 186.761 80.1076 186.687 80.1489 186.612C80.3648 186.196 80.6136 185.8 80.8613 185.405C81.6478 184.197 82.5528 183.072 83.586 182.062C85.4014 180.288 87.5333 179.093 89.7382 177.854C91.6701 176.766 93.7046 175.444 93.8274 173.009C93.9534 170.805 93.2029 168.73 93.4675 166.556V166.545C93.5151 166.173 93.5839 165.802 93.694 165.43C94.1174 164.006 94.8193 162.788 95.7148 161.727C97.8054 159.229 100.947 157.616 103.958 156.406C106.41 155.428 108.992 154.628 111.236 153.207C113.376 151.863 114.544 149.941 115.229 147.57C115.622 146.208 115.897 144.786 116.216 143.384C116.714 141.27 117.329 139.196 118.637 137.452C118.885 137.098 119.167 136.766 119.49 136.444C119.625 136.304 119.772 136.218 119.92 136.173C120.888 135.83 121.966 137.116 121.089 137.986Z" fill="#494949"/>
<path d="M118.636 137.451C118.579 139.389 118.523 141.317 118.446 143.244C118.439 143.445 118.431 143.636 118.423 143.837C118.406 144.123 118.314 144.358 118.148 144.529C117.554 145.215 116.154 145.014 116.201 143.87C116.209 143.711 116.217 143.542 116.215 143.383C116.798 128.394 116.862 113.392 116.439 98.3968C116.397 96.9678 118.62 96.9349 118.662 98.364C119.035 111.392 119.026 124.435 118.636 137.451Z" fill="#494949"/>
<path d="M95.7307 157.83C95.7286 159.121 95.7159 160.424 95.7137 161.727C95.6979 163.515 95.6926 165.305 95.6873 167.094L95.6883 167.19C95.6894 167.296 95.6704 167.401 95.6397 167.498C95.338 168.613 93.4527 168.536 93.4654 167.222C93.4622 167 93.4696 166.778 93.4664 166.556V166.545C93.476 163.645 93.4866 160.754 93.5077 157.863C93.5183 156.423 95.7413 156.39 95.7307 157.83Z" fill="#494949"/>
<path d="M93.5861 100.332C93.5236 98.9028 91.2996 98.9314 91.3621 100.365C91.9294 113.307 93.206 139.08 93.7734 152.023C93.8359 153.452 96.0599 153.423 95.9974 151.99C95.43 139.047 94.1534 113.275 93.5861 100.332Z" fill="#494949"/>
<path d="M68.779 40.6467C65.9993 39.4907 63.6652 42.0916 63.012 44.7718C62.6246 46.3618 62.5272 48.0978 62.4934 49.7343C62.4574 51.4502 62.6013 53.2169 63.1581 54.8386C63.9817 57.2405 66.5042 60.8565 69.267 59.1035C73.9786 56.1121 74.1035 42.8622 68.779 40.6467Z" fill="#494949"/>
<path d="M89.5837 60.0954C91.9305 60.2171 93.6189 58.5065 94.3768 56.7789C96.1827 52.6633 96.2314 48.0057 94.7737 43.8837C94.1884 42.2282 93.3479 40.1333 91.3398 39.3881C89.2449 38.6111 87.4655 40.0274 86.624 41.5835C84.7228 45.0947 82.5083 59.7302 89.5837 60.0954Z" fill="#494949"/>
<path d="M51.8909 34.9379C51.3468 34.8289 50.7975 35.1306 50.6577 35.6832C50.2777 37.1842 50.0395 38.7159 49.9199 40.2603C49.8786 40.7938 50.4386 41.2935 50.9541 41.2638C51.5469 41.2299 51.9132 40.7991 51.9576 40.2307C51.9724 40.038 51.9894 39.8464 52.0084 39.6538C52.0169 39.5723 52.0233 39.4886 52.0338 39.4071C52.001 39.6442 52.0391 39.368 52.0423 39.3373C52.0857 38.9816 52.1365 38.627 52.1958 38.2734C52.3133 37.5663 52.4615 36.8655 52.6372 36.1711C52.7674 35.6535 52.4276 35.0459 51.8909 34.9379Z" fill="#494949"/>
<path d="M62.6765 13.6685C57.1932 18.2584 53.3284 24.6404 51.7607 31.6141C51.4739 32.8907 53.4502 33.3861 53.7392 32.1021C55.236 25.4449 58.9081 19.4662 64.1383 15.0881C65.1429 14.2465 63.6736 12.8344 62.6765 13.6685Z" fill="#494949"/>
<path d="M81.2878 71.9045C80.9777 71.5563 80.3997 71.5341 80.0144 71.7511C79.6651 71.9479 79.4206 72.2761 79.2925 72.6455C79.2247 72.7133 79.1528 72.7789 79.1072 72.871C78.398 74.2842 78.6796 76.1059 79.8641 77.1825C80.2653 77.5477 80.9809 77.6101 81.3609 77.1602C82.646 75.6412 82.6132 73.3865 81.2878 71.9045Z" fill="#494949"/>
</svg>
